<svg id="Layer_1" data-name="Layer 1" xmlns="http://www.w3.org/2000/svg" viewBox="0 0 441.95 569.39"><title>logo</title><polygon points="24.9 32.32 431.25 32.32 441.57 451.57 223.56 568.97 0.39 449 24.9 32.32" style="fill:#1d1d1b;stroke:#000;stroke-miterlimit:10;stroke-width:0.75px"/><polygon points="41.67 49.09 217.11 49.09 214.53 223.24 35.22 221.95 41.67 49.09" style="fill:#1d1d1b;stroke:#000;stroke-miterlimit:10;stroke-width:0.75px"/><polygon points="237.75 49.09 411.9 47.8 417.06 224.53 235.17 221.95 237.75 49.09" style="fill:#fff;stroke:#000;stroke-miterlimit:10;stroke-width:0.75px"/><polygon points="423.51 445.13 232.59 543.16 232.59 243.88 419.64 245.17 423.51 445.13" style="fill:#fff;stroke:#000;stroke-miterlimit:10;stroke-width:0.75px"/><polygon points="211.95 543.16 24.9 445.13 27.48 244.53 213.24 242.59 211.95 543.16" style="fill:#1d1d1b;stroke:#000;stroke-miterlimit:10;stroke-width:0.75px"/><polygon points="61.02 0.72 82.3 11.68 139.71 71.67 139.71 114.24 72.63 45.87 61.02 0.72" style="fill:#fff;stroke:#000;stroke-miterlimit:10;stroke-width:0.75px"/><polygon points="150.03 81.99 220.33 149.72 195.82 170.35 150.03 123.27 150.03 81.99" style="fill:#fff;stroke:#000;stroke-miterlimit:10;stroke-width:0.75px"/><polygon points="38.44 57.48 68.76 72.96 118.42 116.17 121 158.74 62.31 114.88 38.44 57.48" style="fill:#fff;stroke:#000;stroke-miterlimit:10;stroke-width:0.75px"/><polygon points="126.81 121.33 130.68 164.55 168.74 196.8 188.08 174.87 126.81 121.33" style="fill:#fff;stroke:#000;stroke-miterlimit:10;stroke-width:0.75px"/><polygon points="27.48 121.97 53.92 125.2 106.81 165.19 113.91 205.83 50.7 158.74 27.48 121.97" style="fill:#fff;stroke:#000;stroke-miterlimit:10;stroke-width:0.75px"/><polygon points="118.42 172.94 165.51 205.83 164.22 240.01 124.88 214.21 118.42 172.94" style="fill:#fff;stroke:#000;stroke-miterlimit:10;stroke-width:0.75px"/><polygon points="176.47 203.89 233.23 151 229.37 194.87 173.25 254.2 176.47 203.89" style="fill:#fff;stroke:#000;stroke-miterlimit:10;stroke-width:0.75px"/><polygon points="242.91 141.33 304.83 82.63 303.54 127.78 240.98 181.32 242.91 141.33" style="fill:#1d1d1b;stroke:#000;stroke-miterlimit:10;stroke-width:0.75px"/><polygon points="313.21 71.02 313.21 114.24 371.26 64.57 392.55 5.23 362.88 20.07 313.21 71.02" style="fill:#1d1d1b;stroke:#000;stroke-miterlimit:10;stroke-width:0.75px"/><polygon points="171.96 267.75 172.61 305.8 237.11 242.59 240.98 199.38 171.96 267.75" style="fill:#fff;stroke:#000;stroke-miterlimit:10;stroke-width:0.75px"/><polygon points="251.94 189.7 246.78 228.41 319.02 168.42 323.53 125.2 251.94 189.7" style="fill:#1d1d1b;stroke:#000;stroke-miterlimit:10;stroke-width:0.75px"/><polygon points="332.57 116.17 327.41 161.32 389.97 118.75 419 57.48 383.52 76.83 332.57 116.17" style="fill:#1d1d1b;stroke:#000;stroke-miterlimit:10;stroke-width:0.75px"/><polygon points="343.53 165.19 388.04 133.59 426.74 123.91 387.39 176.16 337.73 207.77 343.53 165.19" style="fill:#1d1d1b;stroke:#000;stroke-miterlimit:10;stroke-width:0.75px"/><polygon points="255.16 238.08 330.63 174.22 326.12 212.92 248.72 275.49 255.16 238.08" style="fill:#1d1d1b;stroke:#000;stroke-miterlimit:10;stroke-width:0.75px"/><polygon points="32 172.94 60.37 183.25 102.95 221.31 113.27 263.88 56.51 218.73 32 172.94" style="fill:#fff;stroke:#000;stroke-miterlimit:10;stroke-width:0.75px"/><polygon points="111.97 222.6 122.3 263.24 160.35 288.39 160.35 252.27 111.97 222.6" style="fill:#fff;stroke:#000;stroke-miterlimit:10;stroke-width:0.75px"/><polygon points="170.03 319.35 240.98 252.27 235.17 286.46 165.51 357.4 170.03 319.35" style="fill:#fff;stroke:#000;stroke-miterlimit:10;stroke-width:0.75px"/><polygon points="118.42 285.17 158.42 302.58 157.77 338.7 128.1 325.15 118.42 285.17" style="fill:#fff;stroke:#000;stroke-miterlimit:10;stroke-width:0.75px"/><polygon points="103.59 276.78 115.84 320 52.63 285.81 27.48 244.53 57.79 244.53 103.59 276.78" style="fill:#fff;stroke:#000;stroke-miterlimit:10;stroke-width:0.75px"/><polygon points="119.07 339.34 157.13 356.76 155.84 387.08 133.26 376.75 119.07 339.34" style="fill:#fff;stroke:#000;stroke-miterlimit:10;stroke-width:0.75px"/><polygon points="39.09 305.8 51.99 305.16 104.88 330.96 120.36 372.24 62.31 341.28 39.09 305.8" style="fill:#fff;stroke:#000;stroke-miterlimit:10;stroke-width:0.75px"/><polygon points="164.22 373.53 250.01 289.03 241.62 324.51 161.64 397.39 164.22 373.53" style="fill:#fff;stroke:#000;stroke-miterlimit:10;stroke-width:0.75px"/><polygon points="269.36 271.62 255.16 315.48 322.24 273.56 338.37 222.6 269.36 271.62" style="fill:#1d1d1b;stroke:#000;stroke-miterlimit:10;stroke-width:0.75px"/><polygon points="349.98 216.15 386.1 189.7 426.74 176.8 395.13 228.41 341.6 261.3 349.98 216.15" style="fill:#1d1d1b;stroke:#000;stroke-miterlimit:10;stroke-width:0.75px"/><polygon points="348.05 277.42 406.74 247.75 430.61 247.11 389.33 297.42 333.85 320.64 348.05 277.42" style="fill:#1d1d1b;stroke:#000;stroke-miterlimit:10;stroke-width:0.75px"/><polygon points="334.5 281.94 321.6 327.09 253.87 365.79 265.48 326.44 334.5 281.94" style="fill:#1d1d1b;stroke:#000;stroke-miterlimit:10;stroke-width:0.75px"/><polygon points="161.64 406.42 250.65 336.76 237.75 376.11 159.06 425.78 161.64 406.42" style="fill:#fff;stroke:#000;stroke-miterlimit:10;stroke-width:0.75px"/><polygon points="155.19 443.19 245.49 383.2 228.72 419.97 151.32 459.96 155.19 443.19" style="fill:#fff;stroke:#000;stroke-miterlimit:10;stroke-width:0.75px"/><polygon points="263.98 372.02 332.78 340.63 309.56 384.93 245.49 409.87 263.98 372.02" style="fill:#1d1d1b;stroke:#000;stroke-miterlimit:10;stroke-width:0.75px"/><polygon points="345.68 334.19 327.62 374.61 372.34 357.83 414.06 308.81 389.98 311.83 345.68 334.19" style="fill:#1d1d1b;stroke:#000;stroke-miterlimit:10;stroke-width:0.75px"/><polygon points="334.93 384.07 318.59 421.91 358.15 406.43 407.17 364.71 376.64 367.3 334.93 384.07" style="fill:#1d1d1b;stroke:#000;stroke-miterlimit:10;stroke-width:0.75px"/><polygon points="319.45 390.51 297.1 430.51 228.29 458.89 248.93 420.62 319.45 390.51" style="fill:#1d1d1b;stroke:#000;stroke-miterlimit:10;stroke-width:0.75px"/><polygon points="233.45 430.08 211.95 462.76 135.41 498.45 145.3 473.94 233.45 430.08" style="fill:#fff;stroke:#000;stroke-miterlimit:10;stroke-width:0.75px"/><polygon points="48.55 360.42 79.08 363.43 113.48 380.2 126.81 418.47 76.5 396.97 48.55 360.42" style="fill:#fff;stroke:#000;stroke-miterlimit:10;stroke-width:0.75px"/><polygon points="134.12 392.67 151.32 399.98 151.32 426.2 143.15 422.34 134.12 392.67" style="fill:#fff;stroke:#000;stroke-miterlimit:10;stroke-width:0.75px"/><polygon points="149.17 438.68 138.85 464.05 102.3 451.15 78.65 419.33 101.87 417.61 149.17 438.68" style="fill:#fff;stroke:#000;stroke-miterlimit:10;stroke-width:0.75px"/><polygon points="98.86 470.93 118.21 470.5 135.84 476.09 128.96 496.3 107.89 485.12 98.86 470.93" style="fill:#fff;stroke:#000;stroke-miterlimit:10;stroke-width:0.75px"/><polygon points="66.61 564.71 138.85 505.36 220.12 467.52 191.74 507.08 66.61 564.71" style="fill:#fff;stroke:#000;stroke-miterlimit:10;stroke-width:0.75px"/><polygon points="237.75 460.64 214.53 491.17 287.2 468.38 306.55 433.98 237.75 460.64" style="fill:#1d1d1b;stroke:#000;stroke-miterlimit:10;stroke-width:0.75px"/><polygon points="321.17 431.83 303.11 464.08 348.69 452.47 374.5 420.65 349.98 420.22 321.17 431.83" style="fill:#1d1d1b;stroke:#000;stroke-miterlimit:10;stroke-width:0.75px"/><polygon points="290.21 483.86 318.59 475.26 349.12 474.4 319.45 504.5 266.56 513.1 290.21 483.86" style="fill:#1d1d1b;stroke:#000;stroke-miterlimit:10;stroke-width:0.75px"/><polygon points="279.03 482.57 257.53 510.95 211.52 507.08 247.64 486.01 279.03 482.57" style="fill:#1d1d1b;stroke:#000;stroke-miterlimit:10;stroke-width:0.75px"/><polygon points="278.17 518.26 324.18 514.39 364.6 550.08 308.27 538.04 278.17 518.26" style="fill:#1d1d1b;stroke:#000;stroke-miterlimit:10;stroke-width:0.75px"/></svg>